<?xml version="1.0" encoding="UTF-8" standalone="no"?>
<svg
   xmlns:dc="http://purl.org/dc/elements/1.1/"
   xmlns:cc="http://creativecommons.org/ns#"
   xmlns:rdf="http://www.w3.org/1999/02/22-rdf-syntax-ns#"
   xmlns:svg="http://www.w3.org/2000/svg"
   xmlns="http://www.w3.org/2000/svg"
   version="1.1"
   id="svg2"
   viewBox="0 0 150.99837 132.84725"
   height="132.84724"
   width="150.99837">
  <defs
     id="defs4" />
  <metadata
     id="metadata7">
    <rdf:RDF>
      <cc:Work
         rdf:about="">
        <dc:format>image/svg+xml</dc:format>
        <dc:type
           rdf:resource="http://purl.org/dc/dcmitype/StillImage" />
        <dc:title></dc:title>
      </cc:Work>
    </rdf:RDF>
  </metadata>
  <g
     transform="translate(-81.485379,-21.881884)"
     style="display:inline"
     id="layer1">
    <path
       id="path3588"
       d=""
       style="fill:#000000" />
    <g
       transform="translate(-71.38569,-95.809528)"
       id="g4817"
       style="display:inline">
      <path
         style="display:inline;fill:#dedbda"
         d="m 302.73633,118.73242 c 0.0464,0.0277 0.0815,0.0692 0.10351,0.125 -0.022,-0.056 -0.0571,-0.0972 -0.10351,-0.125 z m -0.43945,0.17969 c -0.21582,0.21831 -0.55331,0.59148 -0.99219,1.0957 0.43935,-0.5042 0.77831,-0.87737 0.99414,-1.0957 z m -148.00782,0.28906 c 0.0573,0.033 0.33778,0.34769 0.79492,0.88672 -0.45713,-0.53895 -0.73562,-0.85373 -0.79296,-0.88672 z m -0.37109,0.10352 c -0.0287,0.0964 -0.0469,0.2213 -0.0469,0.41211 0,0.16145 0.0704,0.67275 0.19532,1.45312 -0.12492,-0.78036 -0.19336,-1.29167 -0.19336,-1.45312 0,-0.18943 0.0164,-0.31564 0.0449,-0.41211 z m 4.26172,4.53711 c 1.32565,1.63024 2.89261,3.57562 4.54687,5.64843 4.41136,5.5275 8.44151,10.47794 8.95703,11 l 0.002,0 c -0.51552,-0.52206 -4.54567,-5.4725 -8.95703,-11 -1.65392,-2.07237 -3.22286,-4.01837 -4.54883,-5.64843 z m 121.12695,18.79687 c -1.17453,0.33201 -2.63227,0.73428 -4.44531,1.23047 -1.12181,0.30701 -6.76406,1.95757 -12.53906,3.66602 5.775,-1.70845 11.41725,-3.35706 12.53906,-3.66407 1.81304,-0.49619 3.27084,-0.90025 4.44531,-1.23242 z m 18.53711,1.6875 c -0.53991,2.58553 -1.0048,4.65498 -1.39063,6.19141 0.38608,-1.53635 0.85078,-3.60586 1.39063,-6.19141 z m -1.39063,6.19141 c -0.46327,1.84361 -0.81271,2.91827 -1.04101,3.19336 l 0.002,0 c 0.2283,-0.27509 0.57608,-1.34966 1.03906,-3.19336 z m -137.56054,-3.88477 c 0.22587,1.07089 0.41228,1.92189 0.54687,2.47071 0.28075,1.14481 0.57962,2.23654 0.83203,3.07226 -0.2524,-0.83583 -0.54932,-1.92745 -0.83007,-3.07226 -0.1346,-0.54882 -0.32297,-1.39982 -0.54883,-2.47071 z m 45.53125,4.00781 L 188.5,173.6582 c 0.36763,0.24776 0.26813,0.4318 -2.34375,4.30664 -0.97154,1.44134 -2.61798,4.25275 -3.6582,6.24805 -7.04332,13.51021 -8.72033,26.28801 -4.15039,31.62695 0.86557,1.01123 1.2666,1.25196 2.08789,1.25196 1.35366,0 2.82055,-1.31072 4.32812,-3.86524 1.17081,-1.98391 3.51612,-7.45605 4.22656,-9.86133 0.20712,-0.70125 0.53323,-1.27343 0.72461,-1.27343 0.20954,0 1.22454,3.72929 2.55078,9.375 1.21126,5.15625 2.30768,9.58834 2.4375,9.84961 5.5784,4.2778 13.82271,10.54875 18.13282,14.19829 2.54979,0.027 28.30184,0.0403 31.50195,0.0182 0.44199,-0.4045 5.03238,-4.05118 9.36928,-7.48619 4.3369,-3.43501 7.96898,-6.38098 8.07031,-6.54493 0.10133,-0.16395 1.21058,-4.62033 2.46485,-9.90429 1.25427,-5.28396 2.43497,-9.65966 2.625,-9.72266 0.20037,-0.0665 0.62951,0.74256 1.02148,1.92578 1.94558,5.87291 4.55839,11.00389 6.44922,12.66406 1.56766,1.37642 2.78284,1.28258 4.1582,-0.32422 1.54743,-1.80782 2.30363,-4.0718 2.4961,-7.47851 0.18391,-3.25498 -0.21795,-6.53927 -1.3125,-10.75195 -1.79105,-6.89335 -6.04229,-15.77728 -10.38281,-21.69727 -0.81793,-1.11556 -1.41714,-2.20988 -1.33204,-2.43164 l -16.14257,-23.14063 -23.70118,0 z"
         id="path3604" />
      <path
         style="display:inline;fill:#660000;fill-opacity:0"
         d="m 154.09375,119.12695 c -0.16077,-0.0112 -0.22266,0.16961 -0.22266,0.58985 0,1.29165 4.49162,24.99617 5.56836,29.38672 0.5615,2.28963 1.18813,4.36497 1.39258,4.61132 0.26921,0.32438 24.98644,18.14198 27.66602,19.94336 l 15.92383,-23.01758 -15.9004,-4.60156 c -14.59617,-4.22328 -15.97745,-4.67746 -16.83789,-5.54883 -0.51552,-0.52206 -4.54567,-5.4725 -8.95703,-11 -4.41136,-5.5275 -8.20813,-10.15711 -8.4375,-10.28906 -0.0773,-0.0445 -0.14172,-0.0705 -0.19531,-0.0742 z"
         id="path3604-9" />
      <path
         style="display:inline;fill:#b2aca8;fill-opacity:1"
         d="m 302.56055,118.69141 c -0.23195,0 -4.3398,4.89517 -9.12891,10.8789 -4.78911,5.98372 -8.95447,11.10467 -9.25781,11.37891 -0.49232,0.44509 -2.06035,0.93515 -9.3125,2.91992 -1.12181,0.30701 -6.76406,1.95757 -12.53906,3.66602 l -10.5,3.10546 16.14257,23.14063 c 0.0851,-0.22177 6.2105,-4.72752 13.61328,-10.01172 7.4028,-5.2842 13.62799,-9.81038 13.83399,-10.05859 0.6088,-0.73357 2.07943,-7.15627 4.27148,-18.66992 1.78738,-9.38819 2.44954,-12.69425 3.14258,-15.67579 0.1056,-0.45429 0.0182,-0.67382 -0.26562,-0.67382 z"
         id="path3604-97" />
      <path
         style="display:inline;fill:#b2aca8;fill-opacity:1"
         d="m 154.09375,119.12695 c -0.16077,-0.0112 -0.22266,0.16961 -0.22266,0.58985 0,1.29165 4.49162,24.99617 5.56836,29.38672 0.5615,2.28963 1.18813,4.36497 1.39258,4.61132 0.26921,0.32438 24.98644,18.14198 27.66602,19.94336 l 15.92383,-23.01758 -15.9004,-4.60156 c -14.59617,-4.22328 -15.97745,-4.67746 -16.83789,-5.54883 -0.51552,-0.52206 -4.54567,-5.4725 -8.95703,-11 -4.41136,-5.5275 -8.20813,-10.15711 -8.4375,-10.28906 -0.0773,-0.0445 -0.14172,-0.0705 -0.19531,-0.0742 z"
         id="path3604-3" />
      <path
         style="display:inline;fill:#0fbdbd"
         d="m 205.32227,180.49805 c -0.82848,-0.002 -1.07585,0.28394 -3.09961,3.59961 -1.20916,1.98104 -2.15381,3.7292 -2.09961,3.88476 0.0542,0.15557 1.57778,1.3005 3.38672,2.54492 l 3.28906,2.26368 6.00586,0 6.0039,0 2.48243,-2.46875 c 1.3647,-1.3576 2.48046,-2.68428 2.48046,-2.94727 0,-0.7269 -0.93017,-3.38329 -1.33789,-3.82227 -0.35303,-0.38011 -15.31605,-3.05168 -17.11132,-3.05468 z m 46.5,0 c -1.79527,0.003 -16.76026,2.67457 -17.11329,3.05468 -0.40412,0.4351 -1.33789,3.09398 -1.33789,3.81055 0,0.25592 1.11114,1.58062 2.46875,2.94531 l 2.46875,2.48243 6.00391,0 6.00586,0 3.37695,-2.30664 c 1.85722,-1.26858 3.37696,-2.43149 3.37696,-2.58399 0,-0.1525 -0.97954,-1.87989 -2.17579,-3.83984 -2.00087,-3.27826 -2.24626,-3.5635 -3.07421,-3.5625 z"
         id="path3598">
         <animate attributeName="fill" values="#0fbdbd;#f84242;#0fbdbd" dur="2s" repeatCount="indefinite" />
      </path>
      <path
         style="display:inline;fill:#b2aca8"
         d="m 212.83594,211.99023 -2.03125,2.01758 -2.03321,2.01758 0,4.79688 0,4.79882 1.41211,1.43164 2.65235,2.9375 4.35742,0 20.36523,0 6.44727,0 2.11523,-2.09961 2.25,-2.23437 0,-4.80078 0,-4.79883 -2.01757,-2.0332 -2.01563,-2.03321 -15.75,0 z m 3.36914,5.94587 c 0.5855,-0.0163 1.44529,-0.0283 2.3164,10e-4 l 2.69922,0.0472 0.79047,3.33207 c -0.99,0.55943 -3.70378,1.7252 -4.71987,2.77452 -1.01609,1.04933 -3.55545,-0.10073 -3.78935,-0.10073 -0.84969,0 -1.73047,-1.33292 -1.73047,-2.62109 0,-1.05935 0.15802,-1.36562 1.11719,-2.15625 1.3229,-0.86631 2.20475,-1.23867 3.31641,-1.27676 z m 19.51758,0.10299 c 0.62176,-0.0253 1.42034,-0.0271 2.38867,0 3.52083,0.0985 3.63365,0.12478 4.75781,1.03321 0.98562,0.79647 1.16529,1.12555 1.24219,2.28515 0.0797,1.20241 -0.0155,1.44429 -0.84766,2.14453 -0.51582,0.43403 -1.11842,0.78907 -1.33789,0.78907 -0.21948,0 -4.75252,1.60826 -5.43722,0.79046 -1.49978,-1.79132 -2.03887,-3.25789 -3.6077,-3.7651 -1.48841,-0.48121 0.97649,-3.2014 2.8418,-3.27732 z"
         id="path3600" />
      <path
         id="path3592"
         d="m 225.14386,248.0012 c -3.72308,-0.80988 -6.78623,-2.78743 -9.14284,-5.90252 -3.44355,-4.5519 -4.13917,-10.94833 -1.73999,-15.9998 1.11237,-2.34207 3.74557,-5.23247 6.03449,-6.62391 1.79407,-1.09063 1.83084,-1.09872 2.82792,-0.6229 1.00336,0.47881 1.55827,1.56026 1.23422,2.40534 -0.0859,0.22404 -0.87618,0.81456 -1.75614,1.31226 -3.17952,1.79832 -5.58971,5.23794 -6.27688,8.9578 -0.3666,1.98453 0.25452,5.2033 1.41625,7.33932 2.28035,4.19274 7.50384,6.78288 12.07308,5.98661 4.17143,-0.72694 7.36205,-3.11746 9.11509,-6.82933 0.86498,-1.83151 0.95529,-2.2925 0.95728,-4.88687 0.002,-2.70959 -0.0589,-2.98835 -1.12679,-5.15162 -1.21414,-2.45951 -3.1838,-4.52668 -5.22983,-5.4887 -0.6248,-0.29378 -1.23512,-0.68294 -1.35627,-0.8648 -0.87374,-1.31172 0.6626,-3.01281 2.44035,-2.70204 2.60234,0.45491 6.19751,3.76319 7.84613,7.22004 2.39217,5.01595 1.68644,11.38238 -1.76795,15.9486 -2.39962,3.17197 -5.41882,5.09658 -9.27958,5.91534 -2.44672,0.51889 -3.83736,0.51605 -6.26854,-0.0128 z"
         style="fill:#7c7671;fill-opacity:1;stroke:#7c7671;stroke-width:2.29923606;stroke-miterlimit:4;stroke-dasharray:none;stroke-opacity:1" />
    </g>
  </g>
</svg>
